<svg width="375" height="374" viewBox="0 0 375 374" fill="none" xmlns="http://www.w3.org/2000/svg">
<path fill-rule="evenodd" clip-rule="evenodd" d="M375 187C375 290.277 291.053 374 187.5 374C83.9466 374 0 290.277 0 187C0 83.7228 83.9466 0 187.5 0C291.053 0 375 83.7228 375 187ZM274.644 254.644C254.421 280.424 222.905 297 187.5 297C126.473 297 77 247.751 77 187C77 126.249 126.473 77 187.5 77C222.905 77 254.421 93.5756 274.644 119.356L216.192 177.808C211.116 182.884 211.116 191.116 216.192 196.192L274.644 254.644Z" fill="white"/>
</svg>
